<svg width="700" height="700" viewBox="0 0 700 700" fill="none" xmlns="http://www.w3.org/2000/svg">
<path d="M350 675C529.493 675 675 529.493 675 350C675 170.507 529.493 25 350 25C170.507 25 25 170.507 25 350C25 529.493 170.507 675 350 675Z" fill="white" stroke="#545CA0" stroke-width="18" stroke-linecap="round" stroke-linejoin="round"/>
<path d="M523.82 444.464L446.5 451.178L378.148 444.464L344.5 318L378.148 198.713C378.148 194.997 374.957 192 371 192H301.148C297.191 192 294 194.997 294 198.713V501.287C294 505.003 297.191 508 301.148 508H523.852C531 508 531 505.003 531 501.287L528.885 476.5L531 451.178C530.991 449.395 531 446 530 446C531 444.464 528.885 443.5 523.82 444.464Z" fill="#DF7070" fill-opacity="0.7" stroke="#DF7070" stroke-width="18" stroke-linecap="round" stroke-linejoin="round"/>
<path d="M520.5 490.3L412 500.306L320.263 490.3L292 309.5L320.263 124.006C320.263 118.467 315.968 114 310.642 114H216.621C211.295 114 207 118.467 207 124.006V574.994C207 580.533 211.295 585 216.621 585H520.5C525.826 585 526 580.006 526 574.5L523.153 537.5L526 500.306C525.988 497.648 526.311 494.375 524.5 492.5C522.689 490.625 523.055 490.301 520.5 490.3Z" fill="#95ACFD" stroke="#7089DF" stroke-width="18" stroke-linecap="round" stroke-linejoin="round"/>
</svg>
